<?xml version="1.0" encoding="UTF-8"?>
<svg id="Capa_1" data-name="Capa 1" xmlns="http://www.w3.org/2000/svg" viewBox="0 0 1080 344.57">
  <defs>
    <style>
      .cls-1 {
        fill: #262335;
      }
    </style>
  </defs>
  <path class="cls-1" d="m198.86,112.93c-12.84-30.19-20.54-39.2-51.03-39.2-3.85,0-8.35.32-10.91,1.28l-2.57,21.83c1.92-.32,3.85-.32,5.46-.32,18.94,0,22.54-2.23,29.85,14.49,1.61,3.85,2.25,6.74,2.25,8.67,0,1.61-.64,3.85-1.93,7.38l-56.17,143.8h29.53l31.78-89.87c3.53-10.59,7.7-22.47,9.95-32.74h1.6c3.21,12.52,6.74,23.11,10.27,33.7l31.46,88.91h29.86l-59.38-157.92Z"/>
  <path class="cls-1" d="m326.25,54.01c-2.56,0-6.86.14-12.88.48-1.94-15.93-6.93-27.46-14.86-34.53-10.56-9.42-29.82-14.09-57.8-14.09h-1.87v10.77c16.14.28,27.18,3.74,33.18,10.39,4.68,5.23,7.55,14.41,8.55,27.6,0,.14.03.24.03.38.28,3.6.42,7.51.42,11.74v25.87c0,8.93.35,16.97,1.04,24.14v.1c1.32,13.26,3.81,23.44,7.55,30.51.62,1.28,1.32,2.46,2.08,3.53.66.97,1.39,1.87,2.15,2.77,4.47,5.3,10.67,9.66,18.63,13.06,5.3,2.32,11.39,4.19,18.25,5.64-6.82,1.45-12.88,3.32-18.18,5.58-7.93,3.39-14.09,7.69-18.56,12.88-.87.97-1.63,2.01-2.36,3.05-.69,1-1.32,2.08-1.94,3.22-3.74,7.06-6.3,17.32-7.58,30.72-.73,7.2-1.07,15.34-1.07,24.41v25.94c0,3.91-.14,7.55-.35,10.94,0,.14-.03.31-.03.45,0,.17-.03.31-.03.48-1,13.3-3.81,22.54-8.48,27.63-5.92,6.58-17.04,9.97-33.28,10.22v10.8h1.87c27.98,0,47.24-4.71,57.8-14.09,6.27-5.58,10.63-13.85,13.16-24.86.73-3.12,1.32-6.48,1.73-10.04,3.57.1,6.27.17,8.21.17,36.88,0,64.9-9.73,84.05-29.19,19.15-19.46,28.71-48.07,28.71-85.85s-9.38-68.39-28.12-89.38c-18.73-20.99-45.43-31.44-80-31.44Zm51.67,189.95c-10.6,15.06-26.56,22.61-47.93,22.61-5.78,0-10.98-.55-15.65-1.66v-30.47c.1-20.12,3.74-34.01,10.91-41.69,7.31-7.76,20.81-12.47,40.55-14.09v-12.88c-20.02-1.9-33.56-6.68-40.72-14.37-7.17-7.69-10.74-21.71-10.74-42.14v-32.38c2.56-.31,5.44-.48,8.59-.48,23.06,0,40.62,8.52,52.74,25.52,12.12,17,18.15,41.63,18.15,73.87,0,30.37-5.3,53.09-15.9,68.19Z"/>
  <path class="cls-1" d="m471.75,83.7c-10.6,0-19.29,3.5-26.08,10.52-6.79,7.01-10.18,15.95-10.18,26.81,0,9.97,3.31,18.33,9.92,25.08,6.61,6.75,14.86,10.12,24.74,10.12,4.41,0,8.48-.73,12.22-2.17,3.74-1.45,7.64-3.84,11.69-7.18,1.96-1.56,3.52-3.15,4.67-4.77,1.16-1.62,1.74-2.99,1.74-4.11,0-.93-.33-1.74-1-2.4-.67-.67-1.52-1-2.54-1-1.29,0-3.1.96-5.41,2.87-1.07.85-1.91,1.49-2.54,1.94-2.23,1.56-4.52,2.72-6.88,3.47-2.36.76-4.81,1.14-7.35,1.14-5.92,0-10.95-2.08-15.09-6.24-4.14-4.16-6.21-9.14-6.21-14.93,0-1.74.24-2.8.73-3.21.49-.4,2.03-.6,4.61-.6h34.33c3.47,0,5.63-.46,6.48-1.37.85-.91,1.27-2.79,1.27-5.64,0-8.68-2.62-15.57-7.85-20.67-5.23-5.1-12.32-7.65-21.27-7.65Zm12.69,26.85c-.58.36-1.76.53-3.54.53h-22.57c-1.74,0-2.87-.18-3.41-.53-.53-.35-.8-1.04-.8-2.07,0-4.5,1.45-8.27,4.34-11.32,2.89-3.05,6.55-4.57,10.95-4.57s8.38,1.52,11.39,4.57c3.01,3.05,4.51,6.82,4.51,11.32,0,1.03-.29,1.72-.87,2.07Z"/>
  <path class="cls-1" d="m574.8,94.79c.53-.27,1.33-.56,2.4-.87,2.4-.75,3.61-2.11,3.61-4.07,0-1.69-.98-2.9-2.94-3.64-1.96-.74-5.37-1.1-10.22-1.1-5.74,0-9.66.37-11.75,1.1-2.09.73-3.14,1.99-3.14,3.77,0,1.51,1.05,2.67,3.14,3.47.85.31,1.49.58,1.94.8.67.36,1.19.89,1.57,1.6.38.71.57,1.54.57,2.47,0,1.56-.84,4.59-2.51,9.08-1.67,4.5-4.15,10.38-7.45,17.63-1.29,2.85-2.35,4.89-3.17,6.11-.82,1.22-1.55,1.84-2.17,1.84-.58,0-1.4-1.01-2.47-3.04-1.07-2.02-3.07-6.58-6.01-13.66-2.54-6.23-4.31-10.76-5.31-13.59-1-2.83-1.5-4.64-1.5-5.44,0-.98.96-1.87,2.87-2.67.98-.4,1.74-.74,2.27-1,.53-.27.95-.7,1.24-1.3.29-.6.43-1.32.43-2.17,0-1.87-1.11-3.17-3.34-3.91-2.23-.74-6.5-1.1-12.82-1.1-7.53,0-12.45.37-14.79,1.1-2.34.73-3.51,2.04-3.51,3.91,0,1.69,1.34,3.07,4.01,4.14.98.4,1.69.71,2.14.93,2,1.02,4.7,5.92,8.08,14.69,1.65,4.27,3.01,7.73,4.07,10.35,6.41,15.4,10.94,25.37,13.59,29.89,2.65,4.52,4.98,6.78,6.98,6.78,3.07,0,9.88-12.04,20.44-36.13l2.8-6.41c.44-1.02,1.07-2.49,1.87-4.41,3.92-9.08,6.95-14.14,9.08-15.16Z"/>
  <path class="cls-1" d="m615.81,156.23c4.41,0,8.48-.73,12.22-2.17,3.74-1.45,7.64-3.84,11.69-7.18,1.96-1.56,3.52-3.15,4.67-4.77,1.16-1.62,1.74-2.99,1.74-4.11,0-.93-.33-1.74-1-2.4-.67-.67-1.52-1-2.54-1-1.29,0-3.1.96-5.41,2.87-1.07.85-1.91,1.49-2.54,1.94-2.23,1.56-4.52,2.72-6.88,3.47-2.36.76-4.81,1.14-7.35,1.14-5.92,0-10.95-2.08-15.09-6.24-4.14-4.16-6.21-9.14-6.21-14.93,0-1.74.24-2.8.73-3.21.49-.4,2.03-.6,4.61-.6h34.33c3.47,0,5.63-.46,6.48-1.37.85-.91,1.27-2.79,1.27-5.64,0-8.68-2.62-15.57-7.85-20.67-5.23-5.1-12.32-7.65-21.27-7.65-10.6,0-19.29,3.5-26.08,10.52-6.79,7.01-10.18,15.95-10.18,26.81,0,9.97,3.31,18.33,9.92,25.08,6.61,6.75,14.86,10.12,24.74,10.12Zm-11.69-59.07c2.89-3.05,6.55-4.57,10.95-4.57s8.38,1.52,11.39,4.57c3.01,3.05,4.51,6.82,4.51,11.32,0,1.03-.29,1.72-.87,2.07-.58.36-1.76.53-3.54.53h-22.57c-1.74,0-2.87-.18-3.41-.53-.53-.35-.8-1.04-.8-2.07,0-4.5,1.45-8.27,4.34-11.32Z"/>
  <path class="cls-1" d="m655.21,65.8c1.83.49,3.25,1,4.27,1.54.98.53,1.67,2.49,2.07,5.88.4,3.38.6,10.89.6,22.51v5.34c0,3.52.02,7.95.07,13.29.04,5.34.07,8.95.07,10.82,0,6.32-.17,10.9-.5,13.73-.33,2.83-.9,4.62-1.7,5.38-.45.45-1.63,1.09-3.54,1.94-1.91.85-2.87,1.98-2.87,3.41,0,2.05,1.12,3.45,3.37,4.21,2.25.75,6.91,1.13,13.99,1.13,6.05,0,10.24-.37,12.56-1.1,2.31-.74,3.47-1.99,3.47-3.77s-1.08-3.09-3.24-3.94c-2.16-.84-3.46-1.51-3.91-2-.76-.89-1.28-3.04-1.57-6.44-.29-3.41-.43-11.28-.43-23.61,0-16.87.27-33.57.8-50.09.09-2.94.13-4.72.13-5.34,0-2.18-.29-3.71-.87-4.57-.58-.87-1.56-1.3-2.94-1.3-1.83,0-4.24.32-7.25.97-3.01.64-6.11,1.52-9.32,2.64-3.3,1.11-5.4,2.06-6.31,2.84-.91.78-1.37,1.75-1.37,2.9,0,1.65,1.47,2.87,4.41,3.67Z"/>
  <path class="cls-1" d="m729.75,83.7c-10.42,0-19.09,3.47-26.01,10.42-6.92,6.95-10.38,15.65-10.38,26.11s3.29,18.97,9.88,25.78c6.59,6.81,14.89,10.22,24.91,10.22s18.66-3.61,25.51-10.82c6.86-7.21,10.29-16.21,10.29-26.98,0-10.15-3.2-18.48-9.58-24.98-6.39-6.5-14.59-9.75-24.61-9.75Zm12.45,57.03c-2.83,3.83-6.51,5.74-11.05,5.74-5.61,0-10.36-3.09-14.26-9.28-3.9-6.19-5.84-13.89-5.84-23.11,0-6.23,1.4-11.23,4.21-14.99,2.81-3.76,6.5-5.64,11.09-5.64,5.52,0,10.25,3.08,14.19,9.25,3.94,6.17,5.91,13.79,5.91,22.87,0,6.28-1.41,11.33-4.24,15.16Z"/>
  <path class="cls-1" d="m816.17,83.7c-2.72,0-5.4.51-8.05,1.53-2.65,1.03-5.42,2.61-8.32,4.74-.71.53-1.6,1.2-2.67,2-1.6,1.25-2.52,1.87-2.74,1.87-.13-.04-.23-.21-.3-.5-.07-.29-.1-.72-.1-1.3v-3.41c0-1.6-.29-2.76-.87-3.47-.58-.71-1.52-1.07-2.81-1.07-1.65,0-4,.39-7.05,1.17-3.05.78-6.31,1.86-9.78,3.24-1.87.67-3.23,1.4-4.07,2.2-.85.8-1.27,1.76-1.27,2.87,0,1.56,1.4,2.78,4.21,3.67,1.43.45,2.49.85,3.21,1.2,1.07.62,1.81,2.76,2.24,6.41.42,3.65.63,11.78.63,24.38v11.35c0,11.58-.18,19.19-.53,22.84-.36,3.65-1,5.95-1.94,6.88-.4.35-1.59.95-3.57,1.77-1.98.83-2.97,1.99-2.97,3.51,0,1.96,1.17,3.32,3.51,4.07,2.34.76,6.87,1.13,13.59,1.13s11.24-.37,13.96-1.1c2.71-.73,4.07-1.95,4.07-3.64,0-.75-.19-1.42-.57-2-.38-.58-.88-1.03-1.5-1.33-.62-.23-1.54-.51-2.74-.87-2.05-.58-3.36-1.18-3.94-1.8-.58-.67-1.02-1.93-1.34-3.77-.31-1.85-.47-4.15-.47-6.91,0-3.03.13-5.2.4-6.51.27-1.31.69-1.97,1.27-1.97.13,0,.65.22,1.54.67,5.3,2.94,10.53,4.41,15.69,4.41,9.44,0,17.24-3.58,23.41-10.75,6.17-7.17,9.25-16.32,9.25-27.45,0-10.06-2.74-18.25-8.21-24.58-5.48-6.32-12.53-9.48-21.17-9.48Zm7.01,56.5c-3.07,4.27-7.19,6.41-12.36,6.41-2.8,0-5.58-.67-8.31-2-2.74-1.33-4.89-3.03-6.44-5.08-.49-.67-.85-1.51-1.07-2.54-.22-1.02-.33-2.92-.33-5.68v-19.03c0-5.16,1.3-9.09,3.91-11.79,2.6-2.69,6.38-4.04,11.32-4.04,5.21,0,9.49,2.44,12.86,7.31,3.36,4.87,5.04,11.23,5.04,19.07,0,7.3-1.54,13.09-4.61,17.36Z"/>
  <path class="cls-1" d="m877.48,119.03h34.33c3.47,0,5.63-.46,6.48-1.37.85-.91,1.27-2.79,1.27-5.64,0-8.68-2.62-15.57-7.85-20.67-5.23-5.1-12.32-7.65-21.27-7.65-10.6,0-19.29,3.5-26.08,10.52-6.79,7.01-10.18,15.95-10.18,26.81,0,9.97,3.31,18.33,9.92,25.08,6.61,6.75,14.86,10.12,24.74,10.12,4.41,0,8.48-.73,12.22-2.17,3.74-1.45,7.64-3.84,11.69-7.18,1.96-1.56,3.52-3.15,4.67-4.77,1.16-1.62,1.74-2.99,1.74-4.11,0-.93-.33-1.74-1-2.4-.67-.67-1.51-1-2.54-1-1.29,0-3.1.96-5.41,2.87-1.07.85-1.91,1.49-2.54,1.94-2.23,1.56-4.52,2.72-6.88,3.47-2.36.76-4.81,1.14-7.35,1.14-5.92,0-10.95-2.08-15.09-6.24-4.14-4.16-6.21-9.14-6.21-14.93,0-1.74.24-2.8.73-3.21.49-.4,2.03-.6,4.61-.6Zm-.33-21.87c2.89-3.05,6.55-4.57,10.95-4.57s8.38,1.52,11.39,4.57c3.01,3.05,4.51,6.82,4.51,11.32,0,1.03-.29,1.72-.87,2.07-.58.36-1.76.53-3.54.53h-22.57c-1.74,0-2.87-.18-3.41-.53-.53-.35-.8-1.04-.8-2.07,0-4.5,1.45-8.27,4.34-11.32Z"/>
  <path class="cls-1" d="m967.44,83.7c-2.63,0-5.24.98-7.85,2.94-2.6,1.96-5.09,4.81-7.45,8.55l-.67-.27c-.04-.31-.11-.78-.2-1.4-.76-6.28-2.25-9.42-4.47-9.42-1.16,0-3.24.39-6.24,1.17-3.01.78-6.11,1.82-9.32,3.11-2.09.8-3.55,1.59-4.37,2.37-.82.78-1.24,1.73-1.24,2.84,0,1.56,1.38,2.78,4.14,3.67,1.42.45,2.49.85,3.21,1.2.98.58,1.66,2.16,2.04,4.74.38,2.58.57,8.17.57,16.76v4.07c0,1.47.02,3.34.07,5.61.04,2.27.07,3.83.07,4.67,0,3.52-.25,6.06-.73,7.61-.49,1.56-1.34,2.67-2.54,3.34-.36.18-.98.44-1.87.8-2.23.8-3.34,1.98-3.34,3.54,0,2.05,1.14,3.45,3.41,4.21,2.27.75,6.92,1.13,13.96,1.13,6.41,0,10.91-.38,13.49-1.13,2.58-.76,3.87-2,3.87-3.74,0-1.87-1.4-3.25-4.21-4.14-1.16-.36-2.07-.67-2.74-.94-1.25-.53-2.15-1.82-2.71-3.87-.56-2.05-.84-5.1-.84-9.15,0-14.11.63-23.39,1.9-27.82,1.27-4.43,3.51-6.64,6.71-6.64.54,0,1.05.6,1.54,1.8.49,1.2,1.02,2.11,1.6,2.74.85.89,1.8,1.57,2.87,2.04,1.07.47,2.25.7,3.54.7,2.63,0,4.68-.92,6.14-2.77,1.47-1.85,2.2-4.4,2.2-7.65s-.96-5.84-2.87-7.78c-1.91-1.94-4.48-2.9-7.68-2.9Z"/>
  <path class="cls-1" d="m999.43,52.91c-2.89,0-5.3.97-7.21,2.91-1.92,1.93-2.87,4.35-2.87,7.25,0,2.45.58,4.49,1.74,6.11,1.16,1.63,2.98,2.9,5.48,3.84.04.04.13.09.27.13,1.56.67,2.34,1.65,2.34,2.94,0,.93-.51,2.52-1.54,4.74-1.02,2.23-2.38,4.65-4.07,7.28-.36.53-.85,1.22-1.47,2.07-.94,1.29-1.4,2.14-1.4,2.54,0,.62.46,1.15,1.37,1.57.91.42,2.06.63,3.44.63.76,0,1.61-.5,2.57-1.5.96-1,2.28-2.81,3.97-5.44,3.07-4.81,5.21-8.81,6.41-11.99,1.2-3.18,1.8-6.27,1.8-9.25,0-3.96-1.02-7.26-3.07-9.89-2.05-2.63-4.63-3.94-7.75-3.94Z"/>
  <path class="cls-1" d="m1054.4,112.69c-.36-.18-.6-.31-.73-.4-5.88-2.89-9.65-5.16-11.32-6.81-1.67-1.65-2.5-3.52-2.5-5.61,0-2.45.82-4.43,2.47-5.94,1.65-1.51,3.83-2.27,6.55-2.27s4.8.57,6.64,1.7c1.85,1.14,3.64,3.13,5.38,5.98,1.43,2.27,2.65,3.84,3.67,4.71,1.02.87,2.07,1.3,3.14,1.3,1.34,0,2.36-.46,3.07-1.37.71-.91,1.07-2.19,1.07-3.84,0-4.01-1.08-7.84-3.24-11.49-2.16-3.65-4.38-5.48-6.65-5.48-.53,0-1.25.13-2.14.4-.89.27-1.98.69-3.27,1.27-1.65-.4-3.3-.69-4.94-.87-1.65-.18-3.3-.27-4.94-.27-6.77,0-12.25,1.9-16.43,5.71-4.19,3.81-6.28,8.74-6.28,14.79,0,4.41,1.27,8.13,3.81,11.15,2.54,3.03,7.44,6.34,14.69,9.95.98.49,2.31,1.14,4.01,1.94,7.79,3.74,11.69,7.57,11.69,11.49,0,2.58-.89,4.64-2.67,6.18-1.78,1.54-4.21,2.3-7.28,2.3-2.76,0-5.34-.53-7.75-1.6-2.4-1.07-4.3-2.52-5.68-4.34-.71-.94-1.6-2.34-2.67-4.21-2.18-3.74-4.34-5.61-6.48-5.61-1.16,0-2.14.5-2.94,1.5-.8,1-1.2,2.24-1.2,3.71,0,3.43.67,7.01,2,10.75,1.34,3.74,2.76,6.26,4.27,7.55.54.44,1.04.77,1.5.97.47.2.92.3,1.37.3.71,0,1.41-.13,2.1-.4.69-.27,1.41-.69,2.17-1.27,2.76.53,5.2.94,7.31,1.23,2.11.29,3.95.44,5.51.44,7.43,0,13.63-2.17,18.6-6.51,4.96-4.34,7.45-9.74,7.45-16.2,0-7.53-6.46-14.47-19.37-20.84Z"/>
  <path class="cls-1" d="m458.79,227.65h34.33c3.47,0,5.63-.45,6.48-1.37.85-.91,1.27-2.79,1.27-5.64,0-8.68-2.62-15.57-7.85-20.67-5.23-5.1-12.32-7.65-21.27-7.65-10.6,0-19.29,3.51-26.08,10.52-6.79,7.01-10.18,15.95-10.18,26.81,0,9.97,3.31,18.33,9.92,25.08,6.61,6.75,14.86,10.12,24.74,10.12,4.41,0,8.48-.72,12.22-2.17,3.74-1.45,7.64-3.84,11.69-7.18,1.96-1.56,3.52-3.15,4.67-4.78,1.16-1.62,1.74-2.99,1.74-4.11,0-.93-.33-1.73-1-2.4-.67-.67-1.52-1-2.54-1-1.29,0-3.1.96-5.41,2.87-1.07.85-1.91,1.49-2.54,1.94-2.23,1.56-4.52,2.72-6.88,3.47-2.36.76-4.81,1.13-7.35,1.13-5.92,0-10.95-2.08-15.09-6.24-4.14-4.16-6.21-9.14-6.21-14.93,0-1.74.24-2.8.73-3.2.49-.4,2.03-.6,4.61-.6Zm-.33-21.87c2.89-3.05,6.55-4.57,10.95-4.57s8.38,1.53,11.39,4.57c3.01,3.05,4.51,6.82,4.51,11.32,0,1.03-.29,1.72-.87,2.07-.58.36-1.76.54-3.54.54h-22.57c-1.74,0-2.87-.18-3.41-.54-.53-.35-.8-1.04-.8-2.07,0-4.5,1.45-8.27,4.34-11.32Z"/>
  <path class="cls-1" d="m541.34,221.31c-.36-.18-.6-.31-.73-.4-5.88-2.89-9.65-5.16-11.32-6.81-1.67-1.65-2.5-3.52-2.5-5.61,0-2.45.82-4.43,2.47-5.94,1.65-1.51,3.83-2.27,6.55-2.27s4.8.57,6.64,1.7c1.85,1.14,3.64,3.13,5.38,5.98,1.43,2.27,2.65,3.84,3.67,4.71,1.02.87,2.07,1.3,3.14,1.3,1.34,0,2.36-.46,3.07-1.37.71-.91,1.07-2.19,1.07-3.84,0-4.01-1.08-7.84-3.24-11.49-2.16-3.65-4.38-5.48-6.65-5.48-.53,0-1.25.13-2.14.4-.89.27-1.98.69-3.27,1.27-1.65-.4-3.3-.69-4.94-.87-1.65-.18-3.3-.27-4.94-.27-6.77,0-12.25,1.9-16.43,5.71-4.19,3.81-6.28,8.74-6.28,14.79,0,4.41,1.27,8.13,3.81,11.15,2.54,3.03,7.43,6.34,14.69,9.95.98.49,2.31,1.14,4.01,1.94,7.79,3.74,11.69,7.57,11.69,11.49,0,2.58-.89,4.64-2.67,6.18-1.78,1.53-4.21,2.3-7.28,2.3-2.76,0-5.34-.54-7.75-1.6-2.4-1.07-4.3-2.51-5.68-4.34-.71-.94-1.6-2.34-2.67-4.21-2.18-3.74-4.34-5.61-6.48-5.61-1.16,0-2.14.5-2.94,1.5-.8,1-1.2,2.24-1.2,3.71,0,3.43.67,7.01,2,10.75,1.34,3.74,2.76,6.25,4.27,7.55.53.45,1.04.77,1.5.97.47.2.92.3,1.37.3.71,0,1.41-.13,2.1-.4.69-.27,1.41-.69,2.17-1.27,2.76.53,5.2.95,7.31,1.24,2.11.29,3.95.43,5.51.43,7.43,0,13.63-2.17,18.6-6.51,4.96-4.34,7.45-9.74,7.45-16.2,0-7.52-6.46-14.47-19.37-20.84Z"/>
  <path class="cls-1" d="m576.14,164.81c-2.18,1.87-3.27,4.12-3.27,6.75,0,2.45.98,4.47,2.94,6.08,1.96,1.6,4.43,2.4,7.41,2.4,3.25,0,5.95-.89,8.12-2.67,2.16-1.78,3.24-3.94,3.24-6.48s-.99-4.65-2.97-6.34c-1.98-1.69-4.49-2.54-7.51-2.54s-5.77.93-7.95,2.8Z"/>
  <path class="cls-1" d="m598.44,254.77c-1.16-.44-2.03-.82-2.6-1.13-1.02-.54-1.74-1.71-2.14-3.54-.4-1.82-.6-4.94-.6-9.35,0-3.65.09-9.35.27-17.1v-.4l.53-17.76c.04-1.02.08-2.07.1-3.14.02-1.07.03-2.45.03-4.14,0-2.14-.28-3.65-.83-4.54-.56-.89-1.46-1.33-2.7-1.33-1.47,0-3.94.43-7.41,1.3-3.47.87-6.97,1.99-10.49,3.37-2,.8-3.44,1.61-4.31,2.44-.87.83-1.3,1.75-1.3,2.77,0,1.56,1.4,2.78,4.21,3.67,1.47.45,2.56.85,3.27,1.2.94.49,1.58,1.85,1.94,4.07.36,2.23.53,6.99.53,14.29v7.21c0,1.47.02,3.34.07,5.61.04,2.27.07,3.83.07,4.68,0,3.52-.24,6.05-.73,7.61-.49,1.56-1.34,2.67-2.54,3.34-.36.18-.96.42-1.8.73-2.27.85-3.41,2.05-3.41,3.61,0,2.05,1.15,3.45,3.44,4.21,2.29.76,6.98,1.13,14.06,1.13,6.05,0,10.22-.37,12.49-1.1,2.27-.74,3.41-1.99,3.41-3.77s-1.18-3.09-3.54-3.94Z"/>
  <path class="cls-1" d="m673.58,253.97c-3.43-2.63-8.37-3.94-14.83-3.94-2.49,0-6.12.26-10.89.77-4.77.51-8.3.77-10.62.77-4.63,0-8.04-.52-10.22-1.57-2.18-1.05-3.27-2.66-3.27-4.84,0-.8.23-1.66.7-2.57.47-.91,1.19-1.88,2.17-2.9,2.05.71,4.23,1.26,6.54,1.64,2.31.38,4.79.57,7.41.57,9.13,0,16.51-2.41,22.14-7.25,5.63-4.83,8.45-11.1,8.45-18.8,0-1.96-.22-3.86-.67-5.71-.45-1.85-1.18-3.71-2.2-5.58,2.71-1.43,4.81-3.05,6.28-4.88,1.47-1.82,2.2-3.72,2.2-5.68,0-.85-.26-1.66-.77-2.44-.51-.78-1.26-1.48-2.24-2.1-2.9,2-5.35,3.44-7.38,4.31-2.03.87-3.89,1.3-5.58,1.3-4.32-.98-7.89-1.68-10.72-2.1-2.83-.42-5.29-.63-7.38-.63-8.73,0-15.94,2.5-21.64,7.51-5.7,5.01-8.55,11.3-8.55,18.87,0,3.61.69,6.9,2.07,9.89,1.38,2.98,3.43,5.63,6.14,7.95-3.38,2.05-5.92,4.2-7.61,6.44-1.69,2.25-2.54,4.55-2.54,6.91s.73,4.43,2.2,6.21c1.47,1.78,3.56,3.14,6.28,4.07-3.61,2.18-6.14,4.22-7.62,6.11-1.47,1.89-2.2,4-2.2,6.31,0,5.12,2.94,9.48,8.82,13.09,5.88,3.61,13.22,5.41,22.04,5.41,11.22,0,20.46-2.46,27.72-7.38,7.26-4.92,10.89-11.08,10.89-18.47,0-4.9-1.72-8.66-5.14-11.29Zm-41.11-48.39c2.47-3,5.53-4.51,9.18-4.51,4.01,0,7.27,1.48,9.78,4.44,2.51,2.96,3.77,6.82,3.77,11.59s-1.29,8.4-3.87,11.32c-2.58,2.92-5.86,4.37-9.82,4.37s-6.86-1.45-9.22-4.34c-2.36-2.89-3.54-6.72-3.54-11.49s1.24-8.38,3.71-11.39Zm25.75,72.9c-4.1,2.4-9.26,3.61-15.49,3.61-5.61,0-10.09-.99-13.42-2.97-3.34-1.98-5.01-4.6-5.01-7.85,0-1.51.29-2.9.87-4.17.58-1.27,1.47-2.48,2.67-3.64,1.42.18,2.85.31,4.27.4,1.42.09,2.92.14,4.48.14,2.98,0,6.58-.23,10.79-.67,4.21-.44,6.91-.67,8.12-.67,2.85,0,5.04.61,6.58,1.84,1.54,1.22,2.3,2.93,2.3,5.11,0,3.52-2.05,6.48-6.14,8.88Z"/>
  <path class="cls-1" d="m755.33,254.64c-.76-.27-1.36-.51-1.8-.73-1.16-.67-1.97-1.68-2.44-3.04-.47-1.36-.7-3.68-.7-6.98,0-.76.02-2.07.07-3.94.04-1.87.07-3.38.07-4.54v-9.42c0-7.48-.44-12.98-1.33-16.5-.89-3.52-2.4-6.54-4.54-9.08-2.14-2.49-4.75-4.46-7.85-5.91-3.1-1.45-6.31-2.17-9.65-2.17-5.88,0-11.33,2.36-16.36,7.08-.62.58-1.11,1.03-1.47,1.34l-1.6,1.47s-.14.1-.3.17c-.16.07-.28.1-.37.1-.22-.04-.37-.11-.43-.2-.07-.09-.1-.31-.1-.67v-4.61c0-1.56-.29-2.68-.87-3.37-.58-.69-1.51-1.03-2.81-1.03-1.56,0-3.96.4-7.21,1.2-3.25.8-6.59,1.87-10.02,3.2-2,.8-3.44,1.61-4.31,2.44-.87.83-1.3,1.75-1.3,2.77,0,1.56,1.4,2.78,4.21,3.67,1.47.45,2.56.85,3.27,1.2.94.49,1.58,1.85,1.94,4.07.36,2.23.53,6.99.53,14.29v7.21c0,1.47.02,3.34.07,5.61.04,2.27.07,3.83.07,4.68,0,3.52-.25,6.05-.73,7.61-.49,1.56-1.34,2.67-2.54,3.34-.36.18-.96.42-1.8.73-2.27.85-3.41,2.05-3.41,3.61,0,2.05,1.15,3.45,3.44,4.21,2.29.76,6.98,1.13,14.06,1.13,6.05,0,10.22-.37,12.49-1.1,2.27-.74,3.41-1.99,3.41-3.77s-1.18-3.09-3.54-3.94c-1.16-.44-2.03-.82-2.6-1.13-.98-.54-1.66-1.55-2.04-3.04-.38-1.49-.57-4.48-.57-8.98,0-9.22.2-15.63.6-19.23.4-3.61,1.11-6.41,2.14-8.42,1.2-2.49,2.93-4.48,5.18-5.98,2.25-1.49,4.62-2.24,7.11-2.24,4.9,0,8.29,1.87,10.18,5.61,1.89,3.74,2.84,13,2.84,27.78,0,5.03-.22,8.56-.67,10.59-.45,2.03-1.2,3.33-2.27,3.91-.53.31-1.4.69-2.6,1.13-2.32.85-3.47,2.16-3.47,3.94s1.1,3.02,3.31,3.71c2.2.69,6.56,1.03,13.06,1.03,7.12,0,11.75-.37,13.89-1.1,2.14-.74,3.21-2.1,3.21-4.11,0-1.56-1.14-2.76-3.41-3.61Z"/>
  <path class="cls-1" d="m91.05,278.17v-25.94c0-28.4-3.57-47.75-10.7-58.18-7.13-10.42-20.26-17.63-39.41-21.68,19.15-4.02,32.28-11.22,39.41-21.64,7.13-10.39,10.7-29.78,10.7-58.11v-25.87c0-19.81,2.98-33.04,8.97-39.72,5.99-6.65,17.04-10.11,33.18-10.39V5.87c-28.99,0-48.83,4.64-59.49,13.89-10.63,9.25-16,26.49-16,51.7v37.78c0,20.43-3.57,34.46-10.74,42.14-7.17,7.69-20.71,12.47-40.72,14.37v12.88c19.74,1.63,33.25,6.41,40.55,14.3,7.27,7.9,10.91,22.02,10.91,42.35v37.95c0,24.97,5.26,42.11,15.83,51.46,10.53,9.32,29.82,13.99,57.8,13.99h1.87v-10.8c-16.24-.24-27.36-3.64-33.28-10.22-5.92-6.55-8.87-19.7-8.87-39.51Z"/>
</svg>