<?xml version="1.0" encoding="UTF-8"?>
<svg id="Capa_1" data-name="Capa 1" xmlns="http://www.w3.org/2000/svg" viewBox="0 0 163.61 135.02">
  <defs>
    <style>
      .cls-1 {
        fill: #fede4d;
      }
    </style>
  </defs>
  <path class="cls-1" d="m73.86,44.58c-.72-1.72-4.62-14.46-16.39-14.46-1.49,0-3.22.12-4.21.5l-.99,8.43c.74-.12,1.49-.12,2.11-.12,6.32-.02,7.72,3.8,8.21,4.91.17.38.87,2.6.87,3.35,0,.62-.25,1.49-.74,2.85l-21.69,55.54h11.41l12.27-34.71c1.36-4.09,2.97-8.68,3.84-12.65h.62c1.24,4.84,2.6,8.93,3.97,13.02l12.15,34.34h11.53l-22.93-60.99Z"/>
  <g>
    <path class="cls-1" d="m120.05,21.83c-.99,0-2.65.05-4.98.19-.75-6.15-2.67-10.61-5.74-13.33-4.08-3.64-11.52-5.44-22.32-5.44h-.72v4.16c6.23.11,10.5,1.44,12.81,4.01,1.81,2.02,2.92,5.56,3.3,10.66,0,.05.01.09.01.15.11,1.39.16,2.9.16,4.53v9.99c0,3.45.13,6.55.4,9.32v.04c.51,5.12,1.47,9.05,2.92,11.78.24.49.51.95.8,1.36.25.37.54.72.83,1.07,1.73,2.05,4.12,3.73,7.2,5.04,2.05.9,4.4,1.62,7.05,2.18-2.63.56-4.98,1.28-7.02,2.15-3.06,1.31-5.44,2.97-7.17,4.98-.33.37-.63.78-.91,1.18-.27.39-.51.8-.75,1.24-1.44,2.73-2.43,6.69-2.93,11.86-.28,2.78-.41,5.92-.41,9.43v10.02c0,1.51-.05,2.92-.13,4.23,0,.05-.01.12-.01.17,0,.07-.01.12-.01.19-.39,5.14-1.47,8.71-3.28,10.67-2.29,2.54-6.58,3.85-12.85,3.95v4.17h.72c10.81,0,18.24-1.82,22.32-5.44,2.42-2.15,4.11-5.35,5.08-9.6.28-1.2.51-2.5.67-3.88,1.38.04,2.42.07,3.17.07,14.24,0,25.06-3.76,32.46-11.27,7.4-7.52,11.09-18.56,11.09-33.16s-3.62-26.41-10.86-34.52c-7.24-8.1-17.55-12.14-30.9-12.14Zm19.95,73.36c-4.09,5.82-10.26,8.73-18.51,8.73-2.23,0-4.24-.21-6.05-.64v-11.77c.04-7.77,1.44-13.13,4.21-16.1,2.82-3,8.04-4.81,15.66-5.44v-4.98c-7.73-.74-12.96-2.58-15.73-5.55-2.77-2.97-4.15-8.39-4.15-16.28v-12.51c.99-.12,2.1-.19,3.32-.19,8.91,0,15.69,3.29,20.37,9.86,4.68,6.57,7.01,16.08,7.01,28.53,0,11.73-2.05,20.5-6.14,26.33Z"/>
    <path class="cls-1" d="m34.56,108.4v-10.02c0-10.97-1.38-18.44-4.13-22.47-2.76-4.03-7.82-6.81-15.22-8.37,7.4-1.55,12.47-4.33,15.22-8.36,2.76-4.01,4.13-11.5,4.13-22.44v-9.99c0-7.65,1.15-12.76,3.46-15.34,2.31-2.57,6.58-3.91,12.81-4.01V3.24c-11.19,0-18.86,1.79-22.98,5.36-4.11,3.57-6.18,10.23-6.18,19.97v14.59c0,7.89-1.38,13.31-4.15,16.28-2.77,2.97-8,4.81-15.73,5.55v4.98c7.62.63,12.84,2.47,15.66,5.52,2.81,3.05,4.21,8.51,4.21,16.36v14.66c0,9.64,2.03,16.26,6.11,19.87,4.07,3.6,11.52,5.4,22.32,5.4h.72v-4.17c-6.27-.09-10.57-1.4-12.85-3.95-2.29-2.53-3.42-7.61-3.42-15.26Z"/>
  </g>
</svg>